<?xml version="1.0" encoding="utf-8"?><!DOCTYPE svg PUBLIC "-//W3C//DTD SVG 1.1//EN" "http://www.w3.org/Graphics/SVG/1.1/DTD/svg11.dtd"><svg version="1.1" xmlns="http://www.w3.org/2000/svg" xmlns:xlink="http://www.w3.org/1999/xlink" width="32" height="32" viewBox="0 0 32 32"><g></g> <path fill="#ffffff" d="M17.927 12l2.68-10.28c0.040-0.126 0.060-0.261 0.060-0.4 0-0.726-0.587-1.32-1.314-1.32-0.413 0-0.78 0.187-1.019 0.487l-13.38 17.353c-0.18 0.227-0.287 0.513-0.287 0.827 0 0.733 0.6 1.333 1.333 1.333h8.073l-2.68 10.28c-0.041 0.127-0.060 0.261-0.060 0.4 0.001 0.727 0.587 1.32 1.314 1.32 0.413 0 0.78-0.186 1.020-0.487l13.379-17.353c0.181-0.227 0.287-0.513 0.287-0.827 0-0.733-0.6-1.333-1.333-1.333h-8.073z"></path></svg>