<?xml version="1.0" encoding="UTF-8" standalone="no"?>
<svg
   width="16"
   height="16"
   fill="currentColor"
   class="bi bi-mic-mute-fill"
   viewBox="0 0 16 16"
   version="1.1"
   id="svg4"
   sodipodi:docname="robot-mic-mute-fill.svg"
   inkscape:version="1.1.1 (eb90963e84, 2021-10-02)"
   xmlns:inkscape="http://www.inkscape.org/namespaces/inkscape"
   xmlns:sodipodi="http://sodipodi.sourceforge.net/DTD/sodipodi-0.dtd"
   xmlns="http://www.w3.org/2000/svg"
   xmlns:svg="http://www.w3.org/2000/svg">
  <defs
     id="defs8">
    <inkscape:path-effect
       effect="powermask"
       id="path-effect951"
       is_visible="true"
       lpeversion="1"
       uri="#mask-powermask-path-effect951"
       invert="false"
       hide_mask="false"
       background="true"
       background_color="#ffffffff" />
    <mask
       maskUnits="userSpaceOnUse"
       id="mask-powermask-path-effect951">
      <path
         id="mask-powermask-path-effect951_box"
         style="fill:#ffffff;fill-opacity:1"
         d="M 0.646,-1.0022549 H 15.354 V 17 H 0.646 Z" />
      <g
         id="g949"
         transform="translate(0.09638052,0.31643897)"
         style="fill:#000000">
        <text
           xml:space="preserve"
           style="font-style:normal;font-variant:normal;font-weight:bold;font-stretch:normal;font-size:8.04897px;line-height:1.25;font-family:sans-serif;-inkscape-font-specification:'sans-serif, Bold';font-variant-ligatures:normal;font-variant-caps:normal;font-variant-numeric:normal;font-variant-east-asian:normal;fill:#000000;fill-opacity:1;stroke:none;stroke-width:0.754588"
           x="6.0747018"
           y="7.5251613"
           id="text947"
           transform="scale(0.86350856,1.1580661)"><tspan
             sodipodi:role="line"
             id="tspan945"
             x="6.0747018"
             y="7.5251613"
             style="font-style:normal;font-variant:normal;font-weight:bold;font-stretch:normal;font-size:8.04897px;font-family:sans-serif;-inkscape-font-specification:'sans-serif, Bold';font-variant-ligatures:normal;font-variant-caps:normal;font-variant-numeric:normal;font-variant-east-asian:normal;fill:#000000;stroke-width:0.754588">R</tspan></text>
      </g>
    </mask>
    <filter
       id="mask-powermask-path-effect951_inverse"
       inkscape:label="filtermask-powermask-path-effect951"
       style="color-interpolation-filters:sRGB"
       height="100"
       width="100"
       x="-50"
       y="-50">
      <feColorMatrix
         id="mask-powermask-path-effect951_primitive1"
         values="1"
         type="saturate"
         result="fbSourceGraphic" />
      <feColorMatrix
         id="mask-powermask-path-effect951_primitive2"
         values="-1 0 0 0 1 0 -1 0 0 1 0 0 -1 0 1 0 0 0 1 0 "
         in="fbSourceGraphic" />
    </filter>
  </defs>
  <sodipodi:namedview
     id="namedview6"
     pagecolor="#505050"
     bordercolor="#eeeeee"
     borderopacity="1"
     inkscape:pageshadow="0"
     inkscape:pageopacity="0"
     inkscape:pagecheckerboard="0"
     showgrid="false"
     inkscape:zoom="44.9375"
     inkscape:cx="7.9888734"
     inkscape:cy="8"
     inkscape:window-width="1920"
     inkscape:window-height="1016"
     inkscape:window-x="1920"
     inkscape:window-y="27"
     inkscape:window-maximized="1"
     inkscape:current-layer="svg4" />
  <path
     fill-rule="evenodd"
     d="M 12.734,9.613 A 4.995,4.995 0 0 0 13,8 V 7 a 0.5,0.5 0 0 0 -1,0 v 1 c 0,0.274 -0.027,0.54 -0.08,0.799 z m -2.522,1.72 A 4,4 0 0 1 4,8 V 7 A 0.5,0.5 0 0 0 3,7 v 1 a 5,5 0 0 0 4.5,4.975 V 15 h -3 a 0.5,0.5 0 0 0 0,1 h 7 a 0.5,0.5 0 0 0 0,-1 h -3 v -2.025 a 4.973,4.973 0 0 0 2.43,-0.923 z M 11,7.88 V 3 A 3,3 0 0 0 5.158,2.037 L 11,7.879 Z M 5,6.12 9.486,10.606 A 3,3 0 0 1 5,8 V 6.121 Z m 8.646,7.234 -12,-12 0.708,-0.708 12,12 -0.708,0.707 z"
     id="path2"
     mask="url(#mask-powermask-path-effect951)"
     inkscape:path-effect="#path-effect951"
     inkscape:original-d="M12.734 9.613A4.995 4.995 0 0 0 13 8V7a.5.5 0 0 0-1 0v1c0 .274-.027.54-.08.799l.814.814zm-2.522 1.72A4 4 0 0 1 4 8V7a.5.5 0 0 0-1 0v1a5 5 0 0 0 4.5 4.975V15h-3a.5.5 0 0 0 0 1h7a.5.5 0 0 0 0-1h-3v-2.025a4.973 4.973 0 0 0 2.43-.923l-.718-.719zM11 7.88V3a3 3 0 0 0-5.842-.963L11 7.879zM5 6.12l4.486 4.486A3 3 0 0 1 5 8V6.121zm8.646 7.234l-12-12 .708-.708 12 12-.708.707z" />
  <path
     style="fill:none;stroke:#ffffff;stroke-width:1.02081px;stroke-linecap:butt;stroke-linejoin:miter;stroke-opacity:1"
     d="M 1.9189833,0.87001139 14.160369,13.188854"
     id="path990" />
</svg>
