<?xml version="1.0" encoding="UTF-8" standalone="no"?>
<!-- Generator: Adobe Illustrator 19.0.0, SVG Export Plug-In . SVG Version: 6.00 Build 0)  -->

<svg
   version="1.1"
   id="Layer_1"
   x="0px"
   y="0px"
   viewBox="0 0 508 508"
   style="enable-background:new 0 0 508 508;"
   xml:space="preserve"
   sodipodi:docname="show-controls.svg"
   inkscape:version="1.1.1 (eb90963e84, 2021-10-02)"
   xmlns:inkscape="http://www.inkscape.org/namespaces/inkscape"
   xmlns:sodipodi="http://sodipodi.sourceforge.net/DTD/sodipodi-0.dtd"
   xmlns="http://www.w3.org/2000/svg"
   xmlns:svg="http://www.w3.org/2000/svg"><defs
   id="defs6972" /><sodipodi:namedview
   id="namedview6970"
   pagecolor="#505050"
   bordercolor="#eeeeee"
   borderopacity="1"
   inkscape:pageshadow="0"
   inkscape:pageopacity="0"
   inkscape:pagecheckerboard="0"
   showgrid="false"
   inkscape:zoom="1.4153543"
   inkscape:cx="253.64673"
   inkscape:cy="254"
   inkscape:window-width="1920"
   inkscape:window-height="1016"
   inkscape:window-x="0"
   inkscape:window-y="27"
   inkscape:window-maximized="1"
   inkscape:current-layer="Layer_1" />
<g
   id="g6937"
   style="fill:#ffffff;fill-opacity:1;stroke:#ffffff;stroke-opacity:1;stroke-width:9;stroke-miterlimit:4;stroke-dasharray:none">
	<g
   id="g6935"
   style="fill:#ffffff;fill-opacity:1;stroke:#ffffff;stroke-opacity:1;stroke-width:9;stroke-miterlimit:4;stroke-dasharray:none">
		<path
   d="M369.8,359.6h-70.5V185.7c31.6-16.4,53.2-49.3,53.2-87.2C352.6,44.2,308.4,0,254.1,0s-98.5,44.2-98.5,98.5    c0,38,21.6,70.9,53.2,87.4v173.7h-70.5c-50.6,0-91.8,37-91.8,82.4v51.9c0,7.8,6.3,14.1,14.1,14.1h386.8c7.8,0,14.1-6.3,14.1-14.1    V442C461.6,396.5,420.5,359.6,369.8,359.6z M183.8,98.5c0-38.7,31.5-70.2,70.2-70.2s70.2,31.5,70.2,70.2s-31.5,70.2-70.2,70.2    C215.4,168.7,183.8,137.2,183.8,98.5z M271.1,195.4v164.1h-34V195.4C248.3,197.4,259.9,197.4,271.1,195.4z M433.5,479.8h-0.1H74.8    V442c0-29.9,28.5-54.2,63.6-54.2h231.5c35.1,0,63.6,24.3,63.6,54.2V479.8z"
   id="path6933"
   style="fill:#ffffff;fill-opacity:1;stroke:#ffffff;stroke-opacity:1;stroke-width:9;stroke-miterlimit:4;stroke-dasharray:none" />
	</g>
</g>
<g
   id="g6939">
</g>
<g
   id="g6941">
</g>
<g
   id="g6943">
</g>
<g
   id="g6945">
</g>
<g
   id="g6947">
</g>
<g
   id="g6949">
</g>
<g
   id="g6951">
</g>
<g
   id="g6953">
</g>
<g
   id="g6955">
</g>
<g
   id="g6957">
</g>
<g
   id="g6959">
</g>
<g
   id="g6961">
</g>
<g
   id="g6963">
</g>
<g
   id="g6965">
</g>
<g
   id="g6967">
</g>
</svg>
