<?xml version="1.0" encoding="UTF-8" standalone="no"?>
<svg
   width="36px"
   height="36px"
   viewBox="0 0 36 36"
   version="1.1"
   fill="currentColor"
   id="svg751"
   sodipodi:docname="volume-up (copy).svg"
   inkscape:version="1.2 (1:1.2.1+202207142221+cd75a1ee6d)"
   xmlns:inkscape="http://www.inkscape.org/namespaces/inkscape"
   xmlns:sodipodi="http://sodipodi.sourceforge.net/DTD/sodipodi-0.dtd"
   xmlns="http://www.w3.org/2000/svg"
   xmlns:svg="http://www.w3.org/2000/svg">
  <defs
     id="defs755" />
  <sodipodi:namedview
     id="namedview753"
     pagecolor="#ffffff"
     bordercolor="#000000"
     borderopacity="0.25"
     inkscape:showpageshadow="2"
     inkscape:pageopacity="0.0"
     inkscape:pagecheckerboard="0"
     inkscape:deskcolor="#d1d1d1"
     showgrid="false"
     inkscape:zoom="24.305556"
     inkscape:cx="12.651429"
     inkscape:cy="18.041143"
     inkscape:window-width="1920"
     inkscape:window-height="1016"
     inkscape:window-x="1920"
     inkscape:window-y="147"
     inkscape:window-maximized="1"
     inkscape:current-layer="svg751" />
  <path
     class="clr-i-solid clr-i-solid-path-1"
     d="M23.41,25.25a1,1,0,0,1-.54-1.85,6.21,6.21,0,0,0-.19-10.65,1,1,0,1,1,1-1.73,8.21,8.21,0,0,1,.24,14.06A1,1,0,0,1,23.41,25.25Z"
     id="path745" />
  <path
     class="clr-i-solid clr-i-solid-path-2"
     d="M25.62,31.18a1,1,0,0,1-.45-1.89A12.44,12.44,0,0,0,25,6.89a1,1,0,1,1,.87-1.8,14.44,14.44,0,0,1,.24,26A1,1,0,0,1,25.62,31.18Z"
     id="path747" />
  <path
     id="path749"
     class="clr-i-solid clr-i-solid-path-3"
     d="M 19.027344 3.7421875 A 1 1 0 0 0 18.330078 4 L 9.0703125 12 L 3.0703125 12 A 1 1 0 0 0 2.0703125 13 L 2.0703125 22.919922 A 1 1 0 0 0 3.0703125 23.919922 L 8.8808594 23.919922 L 18.339844 32.160156 A 1 1 0 0 0 20 31.429688 L 20 4.7207031 A 1 1 0 0 0 19.027344 3.7421875 z M 9.8046875 11.615234 L 14.115234 11.615234 C 15.55716 11.615234 16.613563 11.89709 17.283203 12.458984 C 17.957731 13.020879 18.294922 13.908446 18.294922 15.123047 C 18.294922 15.963051 18.117553 16.652214 17.765625 17.191406 C 17.418585 17.730598 16.893308 18.127406 16.189453 18.382812 C 16.575596 18.484975 16.921561 18.718786 17.224609 19.082031 C 17.532546 19.439601 17.841472 19.984631 18.154297 20.716797 L 19.6875 24.326172 L 16.681641 24.326172 L 15.347656 21.167969 C 15.078823 20.53229 14.804 20.097938 14.525391 19.865234 C 14.251669 19.63253 13.885242 19.515625 13.425781 19.515625 L 12.626953 19.515625 L 12.626953 24.326172 L 9.8046875 24.326172 L 9.8046875 11.615234 z M 12.626953 13.990234 L 12.626953 17.251953 L 13.814453 17.251953 C 14.405887 17.251953 14.827861 17.124547 15.082031 16.869141 C 15.341089 16.613734 15.470703 16.192019 15.470703 15.607422 C 15.470703 15.0285 15.341089 14.614965 15.082031 14.365234 C 14.827861 14.115503 14.405887 13.990234 13.814453 13.990234 L 12.626953 13.990234 z " />
</svg>
