<svg width="36px" height="36px" viewBox="0 0 36 36" version="1.1" xmlns="http://www.w3.org/2000/svg" xmlns:xlink="http://www.w3.org/1999/xlink" fill="currentColor">
    <path class="clr-i-solid clr-i-solid-path-1" d="M23.41,25.11a1,1,0,0,1-.54-1.85,6.21,6.21,0,0,0-.19-10.65,1,1,0,1,1,1-1.73A8.21,8.21,0,0,1,23.94,25,1,1,0,0,1,23.41,25.11Z"></path><path class="clr-i-solid clr-i-solid-path-2" d="M18.34,3.87,9,12H3a1,1,0,0,0-1,1V23a1,1,0,0,0,1,1H8.83l9.51,8.3A1,1,0,0,0,20,31.55V4.62A1,1,0,0,0,18.34,3.87Z"></path>
</svg>