<?xml version="1.0" encoding="UTF-8" standalone="no"?>
<svg
   width="36px"
   height="36px"
   viewBox="0 0 36 36"
   version="1.1"
   fill="currentColor"
   id="svg387"
   sodipodi:docname="volume-down (copy).svg"
   inkscape:version="1.2 (1:1.2.1+202207142221+cd75a1ee6d)"
   xmlns:inkscape="http://www.inkscape.org/namespaces/inkscape"
   xmlns:sodipodi="http://sodipodi.sourceforge.net/DTD/sodipodi-0.dtd"
   xmlns="http://www.w3.org/2000/svg"
   xmlns:svg="http://www.w3.org/2000/svg">
  <defs
     id="defs391" />
  <sodipodi:namedview
     id="namedview389"
     pagecolor="#ffffff"
     bordercolor="#000000"
     borderopacity="0.25"
     inkscape:showpageshadow="2"
     inkscape:pageopacity="0.0"
     inkscape:pagecheckerboard="0"
     inkscape:deskcolor="#d1d1d1"
     showgrid="false"
     inkscape:zoom="24.305556"
     inkscape:cx="12.198857"
     inkscape:cy="18.864"
     inkscape:window-width="1920"
     inkscape:window-height="1016"
     inkscape:window-x="1920"
     inkscape:window-y="147"
     inkscape:window-maximized="1"
     inkscape:current-layer="svg387" />
  <path
     class="clr-i-solid clr-i-solid-path-1"
     d="M23.41,25.11a1,1,0,0,1-.54-1.85,6.21,6.21,0,0,0-.19-10.65,1,1,0,1,1,1-1.73A8.21,8.21,0,0,1,23.94,25,1,1,0,0,1,23.41,25.11Z"
     id="path383" />
  <path
     id="path385"
     class="clr-i-solid clr-i-solid-path-2"
     d="M 19.193359 3.640625 A 1 1 0 0 0 18.339844 3.8691406 L 9 12 L 3 12 A 1 1 0 0 0 2 13 L 2 23 A 1 1 0 0 0 3 24 L 8.8300781 24 L 18.339844 32.300781 A 1 1 0 0 0 20 31.550781 L 20 4.6191406 A 1 1 0 0 0 19.193359 3.640625 z M 9.7988281 11.625 L 14.111328 11.625 C 15.553254 11.625 16.607704 11.906855 17.277344 12.46875 C 17.951872 13.030645 18.289062 13.918212 18.289062 15.132812 C 18.289062 15.972817 18.113646 16.66198 17.761719 17.201172 C 17.414679 17.740364 16.889402 18.139125 16.185547 18.394531 C 16.57169 18.496694 16.915701 18.728552 17.21875 19.091797 C 17.526687 19.449366 17.837566 19.994397 18.150391 20.726562 L 19.683594 24.335938 L 16.677734 24.335938 L 15.341797 21.177734 C 15.072963 20.542055 14.800094 20.107704 14.521484 19.875 C 14.247763 19.642296 13.881336 19.525391 13.421875 19.525391 L 12.623047 19.525391 L 12.623047 24.335938 L 9.7988281 24.335938 L 9.7988281 11.625 z M 12.623047 14 L 12.623047 17.261719 L 13.810547 17.261719 C 14.401981 17.261719 14.823955 17.134313 15.078125 16.878906 C 15.337183 16.6235 15.466797 16.203738 15.466797 15.619141 C 15.466797 15.040219 15.337183 14.624731 15.078125 14.375 C 14.823955 14.125269 14.401981 14 13.810547 14 L 12.623047 14 z " />
</svg>
